#Comment line ignore any data following # character 
#Hierarchical Translation and Rotation (.htr) file 
[Header]	
#Header keywords are followed by a single value 
FileType HTR		#Single word string
DataType HTRS		#Translation followed by rotation and scale data
FileVersion 1		#integer
NumSegments 84		#integer
NumFrames 2		#integer
DataFrameRate 30		#integer, data frame rate in this file
EulerRotationOrder ZYX
CalibrationUnits mm
RotationUnits Degrees
GlobalAxisofGravity Y
BoneLengthAxis Y
ScaleFactor 1.00
[SegmentNames&Hierarchy]
#CHILD	PARENT
MASTER GLOBAL
root MASTER
chest root
L_mid_tent01 root
R_mid_tent01 root
spine01 root
Bip01_Neck chest
L_humerus chest
R_humerus chest
weapon_bone chest
Bip01_Head Bip01_Neck
eye_left_bone Bip01_Head
eye_right_bone Bip01_Head
L_forearm L_humerus
L_front_hand L_forearm
L_weapon_bone L_forearm
L_front_hand01_01 L_front_hand
L_front_hand02_01 L_front_hand
L_front_hand03_01 L_front_hand
L_front_hand01_02 L_front_hand01_01
L_front_hand02_02 L_front_hand02_01
L_front_hand03_02 L_front_hand03_01
R_forearm R_humerus
R_front_hand R_forearm
R_weapon_bone R_forearm
R_front_hand01_01 R_front_hand
R_front_hand02_01 R_front_hand
R_front_hand03_01 R_front_hand
R_front_hand01_02 R_front_hand01_01
R_front_hand02_02 R_front_hand02_01
R_front_hand03_02 R_front_hand03_01
null_rope01_connect L_mid_tent01
Rope1_Seg01 null_rope01_connect
Rope1_Seg02 Rope1_Seg01
Rope1_Seg03 Rope1_Seg02
Rope1_Seg04 Rope1_Seg03
Rope1_Seg05 Rope1_Seg04
Rope1_Seg06 Rope1_Seg05
Rope1_Seg07 Rope1_Seg06
Rope1_Seg09 Rope1_Seg07
L_mid_hand01 Rope1_Seg09
L_mid_hand02 Rope1_Seg09
L_mid_hand03 Rope1_Seg09
null_rope02_connect R_mid_tent01
Rope2_Seg01 null_rope02_connect
Rope2_Seg02 Rope2_Seg01
Rope2_Seg03 Rope2_Seg02
Rope2_Seg04 Rope2_Seg03
Rope2_Seg05 Rope2_Seg04
Rope2_Seg06 Rope2_Seg05
Rope2_Seg07 Rope2_Seg06
Rope2_Seg09 Rope2_Seg07
R_mid_hand01 Rope2_Seg09
R_mid_hand02 Rope2_Seg09
R_mid_hand03 Rope2_Seg09
spine02 spine01
spine03 spine02
pelvis spine03
null_rope03_connect pelvis
null_rope04_connect pelvis
Rope3_Seg01 null_rope03_connect
Rope3_Seg02 Rope3_Seg01
Rope3_Seg03 Rope3_Seg02
Rope3_Seg04 Rope3_Seg03
Rope3_Seg05 Rope3_Seg04
Rope3_Seg06 Rope3_Seg05
Rope3_Seg07 Rope3_Seg06
Rope3_Seg08 Rope3_Seg07
Rope3_Seg09 Rope3_Seg08
R_rear_hand01 Rope3_Seg09
R_rear_hand02 Rope3_Seg09
R_rear_hand03 Rope3_Seg09
Rope4_Seg01 null_rope04_connect
Rope4_Seg02 Rope4_Seg01
Rope4_Seg03 Rope4_Seg02
Rope4_Seg04 Rope4_Seg03
Rope4_Seg05 Rope4_Seg04
Rope4_Seg06 Rope4_Seg05
Rope4_Seg07 Rope4_Seg06
Rope4_Seg08 Rope4_Seg07
Rope4_Seg09 Rope4_Seg08
L_rear_hand01 Rope4_Seg09
L_rear_hand02 Rope4_Seg09
L_rear_hand03 Rope4_Seg09
[BasePosition]
#SegmentName Tx, Ty, Tz, Rx, Ry, Rz, BoneLength
MASTER 0.000000 0.000000 0.000000 -90.000000 0.000000 0.000000 10.000000 
root 0.000000 0.000000 0.000000 0.000000 0.000000 0.000000 10.000000 
chest 0.000000 0.000000 0.000000 0.000000 0.000000 0.000000 10.000000 
L_mid_tent01 0.000000 0.000000 0.000000 0.000000 0.000000 0.000000 10.000000 
R_mid_tent01 0.000000 0.000000 0.000000 0.000000 0.000000 0.000000 10.000000 
spine01 0.000000 0.000000 0.000000 0.000000 0.000000 0.000000 10.000000 
Bip01_Neck 0.000000 0.000000 0.000000 0.000000 0.000000 0.000000 10.000000 
L_humerus 0.000000 0.000000 0.000000 0.000000 0.000000 0.000000 10.000000 
R_humerus 0.000000 0.000000 0.000000 0.000000 0.000000 0.000000 10.000000 
weapon_bone 0.000000 0.000000 0.000000 0.000000 0.000000 0.000000 10.000000 
Bip01_Head 0.000000 0.000000 0.000000 0.000000 0.000000 0.000000 10.000000 
eye_left_bone 0.000000 0.000000 0.000000 0.000000 0.000000 0.000000 10.000000 
eye_right_bone 0.000000 0.000000 0.000000 0.000000 0.000000 0.000000 10.000000 
L_forearm 0.000000 0.000000 0.000000 0.000000 0.000000 0.000000 10.000000 
L_front_hand 0.000000 0.000000 0.000000 0.000000 0.000000 0.000000 10.000000 
L_weapon_bone 0.000000 0.000000 0.000000 0.000000 0.000000 0.000000 10.000000 
L_front_hand01_01 0.000000 0.000000 0.000000 0.000000 0.000000 0.000000 10.000000 
L_front_hand02_01 0.000000 0.000000 0.000000 0.000000 0.000000 0.000000 10.000000 
L_front_hand03_01 0.000000 0.000000 0.000000 0.000000 0.000000 0.000000 10.000000 
L_front_hand01_02 0.000000 0.000000 0.000000 0.000000 0.000000 0.000000 10.000000 
L_front_hand02_02 0.000000 0.000000 0.000000 0.000000 0.000000 0.000000 10.000000 
L_front_hand03_02 0.000000 0.000000 0.000000 0.000000 0.000000 0.000000 10.000000 
R_forearm 0.000000 0.000000 0.000000 0.000000 0.000000 0.000000 10.000000 
R_front_hand 0.000000 0.000000 0.000000 0.000000 0.000000 0.000000 10.000000 
R_weapon_bone 0.000000 0.000000 0.000000 0.000000 0.000000 0.000000 10.000000 
R_front_hand01_01 0.000000 0.000000 0.000000 0.000000 0.000000 0.000000 10.000000 
R_front_hand02_01 0.000000 0.000000 0.000000 0.000000 0.000000 0.000000 10.000000 
R_front_hand03_01 0.000000 0.000000 0.000000 0.000000 0.000000 0.000000 10.000000 
R_front_hand01_02 0.000000 0.000000 0.000000 0.000000 0.000000 0.000000 10.000000 
R_front_hand02_02 0.000000 0.000000 0.000000 0.000000 0.000000 0.000000 10.000000 
R_front_hand03_02 0.000000 0.000000 0.000000 0.000000 0.000000 0.000000 10.000000 
null_rope01_connect 0.000000 0.000000 0.000000 0.000000 0.000000 0.000000 10.000000 
Rope1_Seg01 0.000000 0.000000 0.000000 0.000000 0.000000 0.000000 10.000000 
Rope1_Seg02 0.000000 0.000000 0.000000 0.000000 0.000000 0.000000 10.000000 
Rope1_Seg03 0.000000 0.000000 0.000000 0.000000 0.000000 0.000000 10.000000 
Rope1_Seg04 0.000000 0.000000 0.000000 0.000000 0.000000 0.000000 10.000000 
Rope1_Seg05 0.000000 0.000000 0.000000 0.000000 0.000000 0.000000 10.000000 
Rope1_Seg06 0.000000 0.000000 0.000000 0.000000 0.000000 0.000000 10.000000 
Rope1_Seg07 0.000000 0.000000 0.000000 0.000000 0.000000 0.000000 10.000000 
Rope1_Seg09 0.000000 0.000000 0.000000 0.000000 0.000000 0.000000 10.000000 
L_mid_hand01 0.000000 0.000000 0.000000 0.000000 0.000000 0.000000 10.000000 
L_mid_hand02 0.000000 0.000000 0.000000 0.000000 0.000000 0.000000 10.000000 
L_mid_hand03 0.000000 0.000000 0.000000 0.000000 0.000000 0.000000 10.000000 
null_rope02_connect 0.000000 0.000000 0.000000 0.000000 0.000000 0.000000 10.000000 
Rope2_Seg01 0.000000 0.000000 0.000000 0.000000 0.000000 0.000000 10.000000 
Rope2_Seg02 0.000000 0.000000 0.000000 0.000000 0.000000 0.000000 10.000000 
Rope2_Seg03 0.000000 0.000000 0.000000 0.000000 0.000000 0.000000 10.000000 
Rope2_Seg04 0.000000 0.000000 0.000000 0.000000 0.000000 0.000000 10.000000 
Rope2_Seg05 0.000000 0.000000 0.000000 0.000000 0.000000 0.000000 10.000000 
Rope2_Seg06 0.000000 0.000000 0.000000 0.000000 0.000000 0.000000 10.000000 
Rope2_Seg07 0.000000 0.000000 0.000000 0.000000 0.000000 0.000000 10.000000 
Rope2_Seg09 0.000000 0.000000 0.000000 0.000000 0.000000 0.000000 10.000000 
R_mid_hand01 0.000000 0.000000 0.000000 0.000000 0.000000 0.000000 10.000000 
R_mid_hand02 0.000000 0.000000 0.000000 0.000000 0.000000 0.000000 10.000000 
R_mid_hand03 0.000000 0.000000 0.000000 0.000000 0.000000 0.000000 10.000000 
spine02 0.000000 0.000000 0.000000 0.000000 0.000000 0.000000 10.000000 
spine03 0.000000 0.000000 0.000000 0.000000 0.000000 0.000000 10.000000 
pelvis 0.000000 0.000000 0.000000 0.000000 0.000000 0.000000 10.000000 
null_rope03_connect 0.000000 0.000000 0.000000 0.000000 0.000000 0.000000 10.000000 
null_rope04_connect 0.000000 0.000000 0.000000 0.000000 0.000000 0.000000 10.000000 
Rope3_Seg01 0.000000 0.000000 0.000000 0.000000 0.000000 0.000000 10.000000 
Rope3_Seg02 0.000000 0.000000 0.000000 0.000000 0.000000 0.000000 10.000000 
Rope3_Seg03 0.000000 0.000000 0.000000 0.000000 0.000000 0.000000 10.000000 
Rope3_Seg04 0.000000 0.000000 0.000000 0.000000 0.000000 0.000000 10.000000 
Rope3_Seg05 0.000000 0.000000 0.000000 0.000000 0.000000 0.000000 10.000000 
Rope3_Seg06 0.000000 0.000000 0.000000 0.000000 0.000000 0.000000 10.000000 
Rope3_Seg07 0.000000 0.000000 0.000000 0.000000 0.000000 0.000000 10.000000 
Rope3_Seg08 0.000000 0.000000 0.000000 0.000000 0.000000 0.000000 10.000000 
Rope3_Seg09 0.000000 0.000000 0.000000 0.000000 0.000000 0.000000 10.000000 
R_rear_hand01 0.000000 0.000000 0.000000 0.000000 0.000000 0.000000 10.000000 
R_rear_hand02 0.000000 0.000000 0.000000 0.000000 0.000000 0.000000 10.000000 
R_rear_hand03 0.000000 0.000000 0.000000 0.000000 0.000000 0.000000 10.000000 
Rope4_Seg01 0.000000 0.000000 0.000000 0.000000 0.000000 0.000000 10.000000 
Rope4_Seg02 0.000000 0.000000 0.000000 0.000000 0.000000 0.000000 10.000000 
Rope4_Seg03 0.000000 0.000000 0.000000 0.000000 0.000000 0.000000 10.000000 
Rope4_Seg04 0.000000 0.000000 0.000000 0.000000 0.000000 0.000000 10.000000 
Rope4_Seg05 0.000000 0.000000 0.000000 0.000000 0.000000 0.000000 10.000000 
Rope4_Seg06 0.000000 0.000000 0.000000 0.000000 0.000000 0.000000 10.000000 
Rope4_Seg07 0.000000 0.000000 0.000000 0.000000 0.000000 0.000000 10.000000 
Rope4_Seg08 0.000000 0.000000 0.000000 0.000000 0.000000 0.000000 10.000000 
Rope4_Seg09 0.000000 0.000000 0.000000 0.000000 0.000000 0.000000 10.000000 
L_rear_hand01 0.000000 0.000000 0.000000 0.000000 0.000000 0.000000 10.000000 
L_rear_hand02 0.000000 0.000000 0.000000 0.000000 0.000000 0.000000 10.000000 
L_rear_hand03 0.000000 0.000000 0.000000 0.000000 0.000000 0.000000 10.000000 
#Beginning of Data. Separated by tabs
#Fr	Tx	Ty	Tz	Rx	Ry	Rz	SF
[MASTER]
48 312.030945 5761.843750 2163.627930 0.001660 0.001660 0.001660 6162.587891
49 312.030945 5761.843750 2163.627930 0.001660 0.001660 0.001660 6162.587891
[root]
48 628.118103 -117.306519 546.129456 -43.397591 -43.352314 -62.064140 840.565613
49 628.118103 -117.306519 546.129456 -43.397591 -43.352314 -62.064140 840.565613
[chest]
48 -84.512650 -34.090519 0.000000 29.108437 -47.146847 173.373276 91.129311
49 -84.512650 -34.090519 0.000000 29.108437 -47.146847 173.373276 91.129311
[L_mid_tent01]
48 27.299490 22.179432 -249.918686 -7.118207 17.272436 69.327995 252.381729
49 27.299500 22.179436 -249.918686 -7.378897 17.196358 68.476646 252.381729
[R_mid_tent01]
48 23.228794 24.509907 226.238495 154.050613 -41.362041 69.186028 228.744751
49 23.228794 24.509907 226.238495 154.641083 -40.661324 67.593918 228.744751
[spine01]
48 -0.361383 -0.195265 0.000000 -0.000001 -0.000007 22.052340 0.410763
49 -0.361383 -0.195265 0.000000 -0.000001 -0.000007 22.052340 0.410763
[Bip01_Neck]
48 165.484543 71.581718 0.000119 176.643677 -1.657967 43.431911 180.302734
49 165.484543 71.581718 0.000119 176.643677 -1.657967 43.431911 180.302734
[L_humerus]
48 -13.983130 -135.272980 -120.471481 164.869751 60.559940 -102.095901 181.680161
49 -13.983130 -135.272980 -120.471481 165.194458 59.571831 -101.782043 181.680161
[R_humerus]
48 -13.983309 -135.273102 125.287651 -175.807678 -44.648666 -88.494522 184.909012
49 -13.983309 -135.273102 125.287651 -175.848145 -44.136101 -88.434227 184.909012
[weapon_bone]
48 235.964890 -300.705902 0.000000 0.000000 -89.951546 -128.212341 382.234833
49 235.964890 -300.705902 0.000000 0.000000 -89.951546 -128.212341 382.234833
[Bip01_Head]
48 213.404755 185.824402 10.370442 13.107246 -2.166770 -48.700684 283.160461
49 213.407547 185.816818 10.468653 13.107245 -2.166770 -48.700680 283.161194
[eye_left_bone]
48 -24.626970 125.451866 -64.772606 0.000000 -90.000000 -99.840431 143.318359
49 -24.626970 125.451866 -64.772606 0.000000 -90.000000 -99.840431 143.318359
[eye_right_bone]
48 -24.626970 125.451866 64.327362 0.000000 -89.965736 80.156380 143.117676
49 -24.626970 125.451866 64.327362 0.000000 -89.965736 80.156380 143.117676
[L_forearm]
48 322.776093 0.000000 -0.000119 0.000423 -0.002309 -110.776772 322.776093
49 322.776093 0.000000 -0.000119 0.000422 -0.002309 -110.730972 322.776093
[L_front_hand]
48 241.149185 -0.042021 -3.300071 -178.667953 -1.835447 -27.422342 241.171753
49 241.149185 -0.042021 -3.300071 -178.667953 -1.835447 -27.422350 241.171753
[L_weapon_bone]
48 156.183838 0.000000 0.000000 0.000014 0.000007 0.000001 156.183838
49 156.183838 0.000000 0.000000 0.000014 0.000007 0.000001 156.183838
[L_front_hand01_01]
48 86.095154 20.947098 -0.655860 -0.366594 -0.477154 75.385574 88.609184
49 86.095154 20.947098 -0.655860 -0.366594 -0.477154 75.385574 88.609184
[L_front_hand02_01]
48 86.935165 -11.437475 24.513514 154.399796 -59.883835 -61.369587 91.046425
49 86.935165 -11.437475 24.513514 154.399796 -59.883835 -61.369587 91.046425
[L_front_hand03_01]
48 86.637497 -14.123976 -20.424902 -153.913849 58.118122 -62.702866 90.126129
49 86.637497 -14.123976 -20.424902 -153.913849 58.118122 -62.702866 90.126129
[L_front_hand01_02]
48 71.020905 -0.000179 0.000030 0.000334 -0.002323 -106.379684 71.020905
49 71.020905 -0.000179 0.000030 0.000334 -0.002323 -106.379684 71.020905
[L_front_hand02_02]
48 71.020927 -0.000119 0.000060 0.000334 -0.002323 -106.379684 71.020927
49 71.020927 -0.000119 0.000060 0.000334 -0.002323 -106.379684 71.020927
[L_front_hand03_02]
48 71.020905 -0.000060 0.000060 0.000334 -0.002323 -106.379684 71.020905
49 71.020905 -0.000060 0.000060 0.000334 -0.002323 -106.379684 71.020905
[R_forearm]
48 322.776428 -0.000060 0.000030 0.201308 0.067574 -109.435562 322.776428
49 322.776428 -0.000060 0.000030 0.201337 0.067487 -109.385925 322.776428
[R_front_hand]
48 238.847015 -0.006795 2.210259 -2.635298 -10.645461 -26.312506 238.857239
49 238.847015 -0.006795 2.210259 -2.635298 -10.645461 -26.312506 238.857239
[R_weapon_bone]
48 155.664093 0.002503 -0.000030 0.003487 0.001180 -90.988930 155.664078
49 155.664093 0.002503 -0.000030 0.003487 0.001180 -90.988930 155.664078
[R_front_hand01_01]
48 87.624611 14.231146 22.918642 -154.633514 -59.950634 61.746063 91.683487
49 87.624611 14.231146 22.918642 -154.633499 -59.950615 61.746044 91.683487
[R_front_hand02_01]
48 89.356956 14.367283 -19.491137 154.602661 58.302849 63.744381 92.579636
49 89.356956 14.367283 -19.491137 154.602661 58.302856 63.744389 92.579636
[R_front_hand03_01]
48 87.286232 -22.307278 -0.143439 0.162155 -0.423168 -75.767921 90.091743
49 87.286232 -22.307278 -0.143439 0.162155 -0.423168 -75.767906 90.091743
[R_front_hand01_02]
48 71.020905 0.000060 0.000119 0.002323 -0.000334 106.381714 71.020905
49 71.020905 0.000060 0.000119 0.002323 -0.000334 106.381714 71.020905
[R_front_hand02_02]
48 71.020844 -0.000030 -0.000119 0.002323 -0.000334 106.381714 71.020836
49 71.020844 -0.000030 -0.000119 0.002323 -0.000334 106.381714 71.020836
[R_front_hand03_02]
48 71.020905 0.000000 0.000030 0.002323 -0.000334 106.381714 71.020905
49 71.020905 0.000000 0.000030 0.002323 -0.000334 106.381714 71.020905
[null_rope01_connect]
48 328.732483 0.000000 -0.000238 64.750633 -38.700619 -6.789719 328.732483
49 328.732483 0.000000 -0.000238 64.762527 -38.726711 -5.982159 328.732483
[Rope1_Seg01]
48 0.000038 -0.000708 0.000153 41.500626 32.668175 -126.326935 0.000725
49 0.000038 -0.000722 0.000153 41.048782 33.667507 -126.820343 0.000739
[Rope1_Seg02]
48 139.999863 -0.000179 0.000000 4.777152 20.768955 -3.874214 139.999863
49 139.999863 -0.000179 0.000000 4.672013 20.445078 -3.496846 139.999863
[Rope1_Seg03]
48 139.999924 0.000060 -0.000060 -0.447865 15.539681 -8.597898 139.999924
49 139.999924 0.000060 -0.000060 -0.361084 15.412223 -8.028914 139.999924
[Rope1_Seg04]
48 139.999924 -0.000060 -0.000119 -1.350119 13.081727 -3.578807 139.999924
49 139.999924 -0.000060 -0.000119 -1.318274 12.934470 -3.428518 139.999924
[Rope1_Seg05]
48 139.999832 0.000119 -0.000060 -9.875860 34.895687 8.217571 139.999832
49 139.999832 0.000119 -0.000060 -9.740493 34.750137 8.101312 139.999832
[Rope1_Seg06]
48 139.999954 0.000119 -0.000060 -13.928104 26.165089 13.013101 139.999954
49 139.999954 0.000119 -0.000060 -13.974149 26.403084 13.016267 139.999954
[Rope1_Seg07]
48 139.999985 0.000060 0.000000 -6.346554 8.408540 6.954986 139.999985
49 139.999985 0.000060 0.000000 -6.380967 8.467265 6.984398 139.999985
[Rope1_Seg09]
48 121.602913 0.000119 -0.000089 -89.793175 -1.359789 0.847147 121.602913
49 121.602913 0.000119 -0.000089 -89.793175 -1.359789 0.847147 121.602913
[L_mid_hand01]
48 103.859421 1.038730 8.195221 130.544373 -67.584534 -38.866943 104.187431
49 103.859421 1.038730 8.195221 130.544373 -67.584534 -38.866943 104.187431
[L_mid_hand02]
48 105.572853 -4.139662 -10.864139 -168.923172 43.409309 -73.498886 106.211075
49 105.572853 -4.139662 -10.864139 -168.923172 43.409309 -73.498894 106.211075
[L_mid_hand03]
48 104.641464 17.579376 -3.913581 -6.012627 17.808174 74.893669 106.179977
49 104.641464 17.579376 -3.913581 -6.012625 17.808174 74.893669 106.179977
[null_rope02_connect]
48 328.732849 0.000179 -0.000119 -97.883713 -17.725777 -8.148390 328.732849
49 328.732849 0.000179 -0.000119 -97.589401 -16.518663 -9.013426 328.732849
[Rope2_Seg01]
48 0.000074 -0.000642 0.000000 48.593063 -27.256035 117.990799 0.000646
49 0.000073 -0.000658 0.000000 49.301018 -26.312620 117.666100 0.000662
[Rope2_Seg02]
48 139.999741 -0.000060 -0.000119 9.055441 -3.794711 -9.641369 139.999756
49 139.999741 -0.000060 -0.000119 8.906347 -3.752863 -9.233740 139.999756
[Rope2_Seg03]
48 140.000107 0.000030 0.000000 19.127560 -11.552659 -20.203465 140.000107
49 140.000107 0.000030 0.000000 18.305996 -11.006837 -18.873997 140.000107
[Rope2_Seg04]
48 139.999802 0.000000 -0.000060 24.985651 -33.094765 -32.657486 139.999802
49 139.999802 0.000000 -0.000060 25.425867 -32.856720 -32.352242 139.999802
[Rope2_Seg05]
48 139.999985 -0.000060 0.000119 2.069061 -12.582736 -10.251860 139.999985
49 139.999985 -0.000060 0.000119 2.391587 -14.041932 -10.558963 139.999985
[Rope2_Seg06]
48 139.999893 -0.000030 -0.000119 0.239386 2.259095 -10.589628 139.999893
49 139.999893 -0.000030 -0.000119 0.186515 2.427645 -10.471461 139.999893
[Rope2_Seg07]
48 139.999893 0.000060 -0.000060 2.100083 -4.642701 -12.763009 139.999893
49 139.999893 0.000060 -0.000060 2.043557 -4.465222 -12.721783 139.999893
[Rope2_Seg09]
48 121.338966 0.000089 -0.000060 33.793236 -1.359788 -0.847141 121.338966
49 121.338966 0.000089 -0.000060 33.793236 -1.359788 -0.847141 121.338966
[R_mid_hand01]
48 104.680779 11.144459 -10.335981 -16.212063 45.237247 70.462852 105.778534
49 104.680779 11.144459 -10.335981 -16.212063 45.237247 70.462852 105.778534
[R_mid_hand02]
48 104.070427 2.443552 8.231699 49.067368 -67.749771 39.286453 104.424065
49 104.070427 2.443552 8.231699 49.067368 -67.749771 39.286453 104.424065
[R_mid_hand03]
48 106.028137 -11.221827 -5.996406 -177.101105 15.551026 -76.585571 106.788818
49 106.028137 -11.221827 -5.996406 -177.101105 15.551026 -76.585571 106.788818
[spine02]
48 129.756927 0.001550 0.000119 0.495883 -4.029374 -14.887060 129.756927
49 129.756927 0.001550 0.000119 0.490897 -4.030008 -14.815044 129.756927
[spine03]
48 78.613625 0.081721 -4.898904 1.979153 3.790596 17.694933 78.766159
49 78.613609 0.081723 -4.898902 1.976134 3.792014 17.651041 78.766144
[pelvis]
48 169.435242 0.051022 0.000000 0.007570 -0.191103 -6.505421 169.435257
49 169.435242 0.051022 0.000000 0.008388 -0.191071 -6.995961 169.435257
[null_rope03_connect]
48 -1.257226 -2.466202 137.391083 54.631416 -20.798662 50.331715 137.418976
49 -1.257226 -2.466202 137.391083 54.633335 -20.802162 50.808002 137.418976
[null_rope04_connect]
48 -1.259640 -2.480268 -137.844437 54.631416 -20.798662 50.331715 137.872513
49 -1.259640 -2.480268 -137.844437 54.633335 -20.802162 50.808002 137.872513
[Rope3_Seg01]
48 -0.000033 0.000000 -0.000086 95.571182 -58.710926 -147.755402 0.000092
49 -0.000033 0.000000 -0.000088 95.963211 -59.147614 -147.902313 0.000094
[Rope3_Seg02]
48 139.999924 -0.000119 0.000060 2.318397 4.101309 10.801930 139.999924
49 139.999924 -0.000119 0.000060 2.059109 4.177267 10.331543 139.999924
[Rope3_Seg03]
48 139.999924 -0.000119 0.000119 2.610477 6.704175 16.964247 139.999924
49 139.999924 -0.000119 0.000119 2.409313 6.757731 16.257433 139.999924
[Rope3_Seg04]
48 139.999924 0.000119 0.000000 2.142597 8.112668 24.922750 139.999924
49 139.999924 0.000119 0.000000 2.208086 8.425725 24.218084 139.999924
[Rope3_Seg05]
48 139.999924 -0.000238 0.000060 1.653757 9.118114 9.213387 139.999924
49 139.999924 -0.000238 0.000060 1.707523 9.503648 9.654259 139.999924
[Rope3_Seg06]
48 139.999893 -0.000119 -0.000060 4.110730 9.189726 -1.177195 139.999893
49 139.999893 -0.000119 -0.000060 3.748531 8.771096 0.080780 139.999893
[Rope3_Seg07]
48 139.999771 0.000060 -0.000119 3.276134 6.957780 1.930864 139.999771
49 139.999771 0.000060 -0.000119 2.917382 6.441625 2.589082 139.999771
[Rope3_Seg08]
48 139.999985 -0.000060 0.000000 2.729923 4.661690 1.107992 139.999985
49 139.999985 -0.000060 0.000000 2.413401 4.240466 1.501846 139.999985
[Rope3_Seg09]
48 90.185997 -0.000179 -0.000060 89.793228 -1.359877 -0.847183 90.185997
49 90.185997 -0.000179 -0.000060 89.793228 -1.359877 -0.847183 90.185997
[R_rear_hand01]
48 103.366196 -6.073594 -10.757982 -177.714203 24.565960 -73.910950 104.101845
49 103.366196 -6.073594 -10.757982 -177.714203 24.565960 -73.910950 104.101845
[R_rear_hand02]
48 100.509819 12.039542 -7.992327 -12.874829 36.868488 72.167213 101.543350
49 100.509819 12.039542 -7.992327 -12.874829 36.868488 72.167213 101.543350
[R_rear_hand03]
48 101.539970 5.215704 5.435467 71.484581 -71.816628 21.513813 101.819031
49 101.539970 5.215704 5.435467 71.484581 -71.816628 21.513813 101.819031
[Rope4_Seg01]
48 -0.000001 -0.000708 -0.000153 -108.185455 19.365021 -134.099762 0.000724
49 -0.000001 -0.000722 -0.000153 -108.205864 19.393833 -134.097870 0.000738
[Rope4_Seg02]
48 139.999985 0.000060 0.000119 -0.104385 -10.368052 -3.813392 139.999985
49 139.999985 0.000060 0.000119 -0.085044 -10.392403 -3.853297 139.999985
[Rope4_Seg03]
48 139.999924 0.000000 -0.000238 0.506839 -15.805515 -5.903203 139.999924
49 139.999924 0.000000 -0.000238 0.527043 -15.849640 -5.959867 139.999924
[Rope4_Seg04]
48 139.999985 0.000000 0.000119 0.777419 -16.043459 -4.624234 139.999985
49 139.999985 0.000000 0.000119 0.790584 -16.059120 -4.686276 139.999985
[Rope4_Seg05]
48 139.999802 -0.000060 -0.000119 2.507022 -23.710392 -11.774095 139.999802
49 139.999802 -0.000060 -0.000119 2.528850 -23.901451 -11.970017 139.999802
[Rope4_Seg06]
48 139.999924 0.000000 0.000060 -1.101779 -32.546307 -20.246737 139.999924
49 139.999924 0.000000 0.000060 -1.480411 -32.492519 -20.291916 139.999924
[Rope4_Seg07]
48 139.999802 0.000000 0.000000 -73.511139 -13.282333 -9.297521 139.999802
49 139.999802 0.000000 0.000000 -77.235199 -13.062876 -9.300560 139.999802
[Rope4_Seg08]
48 139.999924 0.000000 0.000119 -73.609779 2.180397 -6.443027 139.999924
49 139.999924 0.000000 0.000119 -69.381737 2.625245 -6.213932 139.999924
[Rope4_Seg09]
48 90.185791 0.000060 0.000060 -135.617828 2.228885 0.850567 90.185791
49 90.185791 0.000060 0.000060 -135.617828 2.228885 0.850567 90.185791
[L_rear_hand01]
48 101.696655 -8.392275 -7.654577 -12.874829 -36.868488 107.832764 102.329041
49 101.696655 -8.392275 -7.654577 -12.874829 -36.868488 107.832764 102.329041
[L_rear_hand02]
48 102.726799 -1.568258 5.773216 71.484581 71.816628 158.486160 102.900848
49 102.726799 -1.568258 5.773216 71.484581 71.816612 158.486160 102.900848
[L_rear_hand03]
48 104.552910 9.721220 -10.420293 -177.714203 -24.565960 -106.089035 105.519653
49 104.552910 9.721220 -10.420293 -177.714203 -24.565960 -106.089035 105.519653
